<?xml version="1.0" encoding="UTF-8" standalone="no"?>
<!DOCTYPE svg PUBLIC "-//W3C//DTD SVG 1.1//EN" "http://www.w3.org/Graphics/SVG/1.1/DTD/svg11.dtd">
<svg width="100%" height="100%" viewBox="0 0 103 126" version="1.1" xmlns="http://www.w3.org/2000/svg" xmlns:xlink="http://www.w3.org/1999/xlink" xml:space="preserve" xmlns:serif="http://www.serif.com/" style="fill-rule:evenodd;clip-rule:evenodd;stroke-linejoin:round;stroke-miterlimit:2;">
    <g transform="matrix(1,0,0,1,-348.979595,-34.938571)">
        <g>
            <g transform="matrix(1,0,0,1,-2.764829,-2.197154)">
                <circle cx="396.475" cy="46.158" r="9.023" style="fill:rgb(1,73,180);"/>
            </g>
            <path d="M359.386,39.38C370.972,40.512 376.572,44.303 384.688,52.984L377.781,58.559C373.092,48.945 367.499,43.701 359.386,39.38Z" style="fill:rgb(1,73,180);"/>
            <path d="M418.052,105.869L422.749,105.742L418.127,118.767C418.127,118.767 436.614,120.684 437.493,109.347C437.979,103.078 423.502,105.609 423.502,105.609L426.379,96.713C426.379,96.713 444.431,92.531 447.858,100.453C451.549,108.982 445.842,117.485 440.487,122.052C435.132,126.619 423.927,128.16 415.729,127.854L410.908,139.583C409.422,135.743 406.124,135.279 401.926,136.492L409.362,115.942C405.817,118.908 402.102,121.015 399.443,121.25C382.17,122.779 377.781,115.673 377.781,115.673L385.667,107.808C390.047,112.575 406.296,113.512 408.591,104.681C410.491,97.372 380.853,105.596 389.272,85.868C396.163,73.43 416.278,65.623 428.18,76.65L420.084,83.786C412.253,79.271 398.882,83.4 398.838,87.345C398.773,93.226 415.241,89.611 419.53,97.062C420.676,99.429 419.897,102.602 418.052,105.869Z" style="fill:rgb(108,184,84);fill-opacity:0.98;"/>
            <g transform="matrix(1,0,0,1,-1.2617,-0.909725)">
                <ellipse cx="406.76" cy="142.364" rx="4.128" ry="3.996" style="fill:rgb(199,19,19);"/>
            </g>
            <path d="M418.509,59.562C385.53,49.244 361.581,70.825 359.492,95.959C358.168,111.892 369.218,140.377 395.683,141.008C370.855,128.675 366.943,112.909 367.386,97.648C367.958,77.921 388.326,56.002 418.509,59.562Z" style="fill:rgb(1,73,180);"/>
            <path d="M359.469,78.182C359.469,78.182 324.423,125.856 382.449,155.944C416.255,169.215 444.555,150.385 451.658,132.894C445.523,142.568 415.248,163.091 382.776,146.25C351.832,127.648 350.634,100.234 359.469,78.182Z" style="fill:rgb(1,73,180);"/>
        </g>
    </g>
</svg>
